<?xml version="1.0" encoding="UTF-8"?>
<svg width="512pt" height="512pt" version="1.1" viewBox="0 0 512 512" xmlns="http://www.w3.org/2000/svg">
 <g fill="#ccc">
  <path d="m442.67 93.227v-29.227c0-5.7148-3.0508-11-8-13.855-4.9531-2.8594-11.051-2.8594-16 0-4.9531 2.8555-8 8.1406-8 13.855v26.668h-53.332l-0.003907-26.668c0-5.7148-3.0469-11-8-13.855-4.9492-2.8594-11.047-2.8594-16 0-4.9492 2.8555-8 8.1406-8 13.855v26.668h-53.332v-26.668c0-5.7148-3.0508-11-8-13.855-4.9492-2.8594-11.051-2.8594-16 0-4.9492 2.8555-8 8.1406-8 13.855v26.668h-53.332v-26.668c0-5.7148-3.0508-11-8-13.855-4.9531-2.8594-11.051-2.8594-16 0-4.9531 2.8555-8 8.1406-8 13.855v26.668h-53.336v-26.668c0-5.7148-3.0469-11-8-13.855-4.9492-2.8594-11.047-2.8594-16 0-4.9492 2.8555-8 8.1406-8 13.855v29.227c-12.23 3.4688-23.004 10.812-30.699 20.93-7.6914 10.121-11.895 22.465-11.965 35.176v256c0 15.562 6.1797 30.484 17.184 41.484 11 11.004 25.922 17.184 41.48 17.184h341.34c15.559 0 30.48-6.1797 41.48-17.184 11.004-11 17.184-25.922 17.184-41.484v-256c-0.070312-12.711-4.2734-25.055-11.965-35.176-7.6953-10.117-18.469-17.461-30.699-20.93zm10.664 312.11c0 7.0742-2.8086 13.855-7.8086 18.859-5 5-11.785 7.8086-18.855 7.8086h-341.34c-7.0703 0-13.855-2.8086-18.855-7.8086-5-5.0039-7.8086-11.785-7.8086-18.859v-197.33h346.66c5.7188 0 11-3.0508 13.859-8 2.8555-4.9492 2.8555-11.051 0-16-2.8594-4.9492-8.1406-8-13.859-8h-346.66v-26.668c0-7.0703 2.8086-13.855 7.8086-18.855s11.785-7.8086 18.855-7.8086h341.34c7.0703 0 13.855 2.8086 18.855 7.8086s7.8086 11.785 7.8086 18.855z"/>
  <path d="m362.67 261.33h-213.34c-5.7148 0-10.996 3.0508-13.855 8-2.8594 4.9531-2.8594 11.051 0 16 2.8594 4.9531 8.1406 8 13.855 8h213.34c5.7148 0 10.996-3.0469 13.855-8 2.8594-4.9492 2.8594-11.047 0-16-2.8594-4.9492-8.1406-8-13.855-8z"/>
  <path d="m277.33 346.67h-128c-5.7148 0-10.996 3.0469-13.855 8-2.8594 4.9492-2.8594 11.047 0 16 2.8594 4.9492 8.1406 8 13.855 8h128c5.7188 0 11-3.0508 13.859-8 2.8555-4.9531 2.8555-11.051 0-16-2.8594-4.9531-8.1406-8-13.859-8z"/>
 </g>
</svg>
