<?xml version="1.0" encoding="UTF-8"?>
<svg width="512pt" height="512pt" version="1.1" viewBox="0 0 512 512" xmlns="http://www.w3.org/2000/svg">
 <path d="m481.27 334.08c-2.8477-1.7148-16.234-9.4922-15.25-8.8945 6.9531-19.836 10.617-39.148 10.617-57.41v-0.015625c-0.085937-26.5-8.1797-53.258-31.066-66.207-126.18-73.285-143.73-83.477-145.73-84.637 0-0.011719-0.007812-0.023438-0.007812-0.039063v-0.023437c-0.027344-11.227-7.2773-21.598-20.391-29.188-1.7852-1.043-3.8594-2.0547-6.1211-3.0742v-0.050781c0-0.007813-0.003906-0.015625-0.003906-0.023438 0-0.011719 0.003906-0.019531 0.003906-0.03125-0.007813-7.1445-4.4766-13.648-12.578-18.332-14.109-8.1445-35.629-8.5039-50.527-1.2656l-18.879-10.977c-19.688-11.625-45.715-9.3047-73.297 6.5703-54.344 31.355-98.469 107.79-98.363 170.38 0.097656 30.336 10.492 53.27 29.332 65.035l-0.1875 55.566c0 6.1641 3.7969 11.793 10.75 15.891 6.2578 3.5781 14.254 5.3672 22.23 5.3672 8.0703 0 16.129-1.8281 22.371-5.4805 6.6875-3.8945 10.52-9.5703 10.52-15.559l0.0625-17.445 93.465 54.281-0.1875 55.594c0 6.1641 3.7969 11.797 10.75 15.895 6.2695 3.582 14.27 5.3711 22.25 5.3711 8.0586 0 16.086-1.8203 22.289-5.457 6.7266-3.7852 10.582-9.4766 10.582-15.59l0.066406-17.625 30.918 17.957c0.019531 0.011719 0.035157 0.023437 0.054688 0.03125 0.050781 0.03125 0.09375 0.070312 0.14844 0.10156 8.25 4.7539 17.562 7.1172 27.605 7.1172 14.086 0 29.602-4.6523 45.582-13.875 13.434-7.7773 26.348-18.363 38.488-31.285l16.43 9.5156c0 0.003906 0.003906 0.003906 0.003906 0.003906l0.007813 0.003906c0.078125 0.046875 0.16797 0.027344 0.25 0.066406 8.3164 4.6797 17.918 2.5586 26.148-2.1914 18.395-10.621 32.758-35.508 32.703-56.66-0.03125-10.887-3.9766-19.156-11.043-23.414zm-191.32-195.78-0.027344 10.461c-0.019531 7.4922-5.4023 14.734-15.16 20.402-22.242 12.934-58.578 12.934-80.98-0.007813-9.9727-5.7539-15.445-13.109-15.43-20.711l0.027343-10.457c2.3672 2.3242 6.5781 5.6094 10.562 7.9219 25.387 14.574 65.875 14.41 90.867-0.003906 0.015625-0.003906 0.023438-0.007812 0.035156-0.015625 3.7695-2.207 7.6797-5.2344 10.105-7.5898zm-15.457-42.125c9.9766 5.7734 15.48 13.125 15.5 20.707 0.023437 8.5977-7.5508 16.07-15.133 20.477-22.355 12.988-59.508 12.391-80.992-0.007812-7.8438-4.5273-15.508-12.148-15.34-21.012 0.21094-8.7031 7.6172-15.77 15.102-20.137 0.50391-0.28516 1-0.51172 1.5-0.78125v14.496c-0.019531 7.1602 4.4297 13.672 12.527 18.352 7.4961 4.3281 17.09 6.4922 26.684 6.4922 9.5898 0 19.172-2.1641 26.625-6.5 7.9531-4.6172 12.348-11.055 12.367-18.129l-0.003907-14.562c0.37109 0.20312 0.80859 0.39844 1.1641 0.60547zm-11.012 4.8945v9.043c-0.007813 3.3711-2.7305 6.8828-7.4648 9.6328-11.73 6.8164-31.629 6.8125-43.438-0.007812-4.8398-2.793-7.6172-6.3672-7.6055-9.8086v-8.9609c12.09 8.5625 33.445 11.016 50.012 4.5547 2.9531-1.1406 5.8555-2.6094 8.4961-4.4531zm-7.6523-26.383c4.8594 2.8086 7.6484 6.3828 7.6523 9.8125 0.007813 5.5508-7.0156 9.9141-12.238 11.906-12.68 4.7852-29.09 3.2812-38.668-2.25-3.5508-2.0508-7.5586-5.8008-7.5977-9.7148 0-3.4609 2.6641-6.9141 7.5-9.7266 0.027343-0.015625 0.035156-0.046875 0.0625-0.0625 11.727-6.7773 31.5-6.7695 43.289 0.035156zm-150.98 276.98c0 2.4102-2.0547 4.9844-5.6328 7.0703-9.3398 5.4727-25.25 5.4961-34.695 0.10547-3.7695-2.2227-5.8477-4.8398-5.8477-7.3594l0.16797-49.719 46.098 26.773zm159.21 92.648c0 2.4766-2.0273 5.043-5.6406 7.0703-9.332 5.4805-25.246 5.5039-34.691 0.10938-3.7695-2.2227-5.8477-4.8398-5.8477-7.3672l0.16797-49.902 46.102 26.773zm-48.434-62.938c-0.023437-0.011718-0.050781-0.007812-0.070312-0.019531l-159.28-92.52-1.1289-0.60547c-16.434-9.5781-25.535-29.961-25.621-57.391-0.09375-59.445 41.82-132.05 93.434-161.83 14.309-8.2344 28.289-12.418 40.707-12.418 8.4141 0 16.109 1.9219 22.691 5.8125l14.805 8.6055c-3.4336 3.4219-5.9219 8.3477-6 13.152-0.003906 0.058594-0.035156 0.10938-0.035156 0.16797v0.0625c-2.0586 0.91797-4.1719 1.9961-6.4023 3.2695-0.027343 0.015626-0.046874 0.035157-0.074218 0.050782-10.602 6.2031-19.566 15.781-19.969 28.16-0.17969 6.625-0.074219 13.512-0.17188 32.547-0.027344 11.277 7.1953 21.672 20.352 29.27 12.773 7.375 29.133 11.066 45.477 11.066 16.352 0 32.68-3.6914 45.375-11.078 12.902-7.4961 20.027-17.75 20.059-28.883l0.058593-20.504 114.46 66.465c-11.047 0.68359-26.113 4.8867-41.527 13.812-16.996 9.8047-32.984 24.008-46.93 40.809-30.68 36.961-51.473 86.496-51.336 129.47v0.003907 0.003906c0 0.023437 0.003906 0.042969 0.003906 0.066406 0.035157 17.035 3.7383 31.77 8.6016 41.676-1.6172-0.94141-69.652-40.484-67.48-39.223zm157.73 48.141c-24.188 13.957-46.691 16.352-63.34 6.75-0.007813-0.003906-0.011719-0.007812-0.019531-0.011719-0.011719-0.007812-0.019532-0.023437-0.035156-0.03125l-0.007813-0.003906s0-0.003906-0.003906-0.003906l-0.050781-0.027344c-19.145-11.121-25.48-35.219-25.551-57.359-0.19141-59.371 41.684-131.92 93.348-161.73 19.289-11.16 44.012-17.961 63.312-6.8047l0.17969 0.10156c0.011719 0.007812 0.027344 0.007812 0.039062 0.011718 16.398 9.5625 25.48 29.918 25.57 57.387 0 16.629-3.1406 34.238-9.3398 52.426l-10.883-6.3125 0.027343-7.1758c0.45703-0.21484 0.85547-0.45312 1.2773-0.67969 0.33984-0.17969 0.72266-0.3125 1.0508-0.5 6.5-3.7734 10.09-9.0977 10.117-14.957 0.019531-2.2422 0.19141-22.305 0.19141-21.293-0.003906-5.3398-3.2383-10.32-8.7188-14.016-3.1953-22.824-14.5-35.453-32.164-35.453-9.6914 0-21.129 3.6289-33.078 10.504-46.641 26.867-85.871 94.84-85.668 148.41 0 30.086 12.371 48.047 33.086 48.047 9.625 0 21.027-3.6289 33-10.516 10.16-5.9258 19.746-13.539 28.621-22.504l13.77 7.9805c-11.031 11.465-22.695 20.785-34.73 27.758zm0.10547-140.41c-18.023 10.348-32.605 35.688-32.5 56.457 0 11.086 4.0078 19.555 11.316 23.852l33.285 19.289c-7.7656 7.5703-16.09 13.969-24.809 19.051-10.453 6.0156-20.152 9.1914-28.062 9.1914-20.977 0-23.242-26.715-23.242-38.223-0.19141-50.496 36.777-114.54 80.734-139.86 10.453-6.0156 20.191-9.1914 28.164-9.1914 10.984 0 18.164 7.0078 21.398 20.871-0.003906 0-0.011719 0-0.015625-0.003907-10.371-2.6602-23.758-1.7305-33.02 3.6328-5.5508 3.2461-10.035 8.3008-10.184 14.809-0.10547 8.6055-0.21484 17.344-0.20312 16.332-5.6445-1.8594-14.238-1.2266-22.863 3.793zm70.719-13.281c-8.8086 5.1094-23.703 5.1406-32.508 0.046875-5.75-3.3164-4.7734-5.6328-5.3281-6.6211 0-4.707 7.7969-8.2227 12.715-9.375 13.527-3.1211 30.309 2.3281 30.309 9.4258v0.12891c-0.078126 2.6094-2.9023 5.0664-5.1875 6.3945zm-38.035 14.742 0.058594-6.4844c6.4961 3.832 14.18 5.4492 21.656 5.4492h0.007813c8.2812 0 15.898-2.0781 21.262-5.1953 0.03125-0.019532 0.066406-0.039063 0.10156-0.058594l-0.054688 6.2461c0 2.2266-1.8555 4.5234-5.2891 6.5078-2.7578 1.6445-7.457 3.2617-13.223 3.6836-6.957 0.52344-16.777-0.72656-22.141-5.8438-1.207-1.1328-2.3789-2.6445-2.3789-4.3047zm12.48 19.352c4.3359 0.91016 11.973 1.2109 18.09 0.015625-0.003906 1.8086-0.050782 19.605-0.046875 18.598 0 0.089844-0.26953 0.70312-1.5898 1.457-3.918 2.2734-10.875 2.2656-14.871-0.019531-1.2305-0.70312-1.625-1.3203-1.6602-1.418zm-22.59 73.457c-0.011718-0.007812-0.019531-0.023438-0.03125-0.027344l-38.766-22.438c-4.1484-2.4375-6.4336-7.8906-6.4336-15.371-0.085938-17.336 12.535-39.27 27.582-47.91 12.734-7.4102 18.523-0.66406 19.57-0.5 1.6289 3.1562 5.2188 6.9492 10.828 9.6406l-0.085937 21.758c0 3.9375 2.4102 7.5781 6.6172 9.9844 3.5469 2.0234 7.9727 3.0391 12.383 3.0391 4.4141 0 8.8125-1.0156 12.297-3.0391 4.1406-2.3711 6.5156-6.0078 6.5156-9.9844l0.011719-3.2617c0.98828 0.57031 14.695 8.5234 13.707 7.9492-5.3008 2.0156-7.6602 4.0898-9.0469 5.0586-17.789 12.281-29.383 36.262-29.289 54.152 0 2.1602 0.16016 4.2305 0.47266 6.1953zm58.656 22.254c-6.4922 3.75-12.34 4.5039-16.473 2.1211-4.1289-2.375-6.4141-7.8086-6.4375-15.297-0.046875-17.305 12.605-39.254 27.633-47.934 4.9883-2.8867 11.574-5.0078 16.566-2.1719l0.14844 0.085938c4.0586 2.3984 6.3125 7.7422 6.3359 15.094 0.054687 17.648-12.406 39.23-27.773 48.102z" fill="#fff"/>
</svg>
