<?xml version="1.0" encoding="UTF-8"?>
<svg width="512pt" height="512pt" version="1.1" viewBox="0 0 512 512" xmlns="http://www.w3.org/2000/svg">
 <g fill="#fff" fill-rule="evenodd">
  <path d="m356.76 108.22c-1.5234 0-3.5664 0.46875-5.832 1.8828-2.4805 1.5508-5.875 4.7031-9.5117 8.9922-6.4453 7.6094-14.016 18.973-19.039 29.684-3.668 7.8203-5.9219 15.379-5.9219 21.141 0 21.488 17.992 39.062 40.305 39.062s40.305-17.574 40.305-39.062c0-5.7617-2.2539-13.32-5.9219-21.141-5.0234-10.711-12.594-22.074-19.039-29.684-3.6328-4.2891-7.0312-7.4414-9.5117-8.9922-2.2656-1.4141-4.3086-1.8828-5.832-1.8828zm0 14.445c1.375 1.2344 3.4609 3.1875 5.0938 5.1172 5.8008 6.8438 12.605 17.062 17.125 26.699 2.6953 5.7461 4.6523 11.207 4.6523 15.438 0 14.215-12.109 25.629-26.871 25.629s-26.871-11.414-26.871-25.629c0-4.2305 1.9609-9.6914 4.6523-15.438 4.5234-9.6367 11.328-19.855 17.129-26.699 1.6289-1.9297 3.7148-3.8828 5.0898-5.1172z"/>
  <path d="m136.89 353.64c-3.2109-1.8516-7.3203-0.75391-9.1758 2.4609l-10.078 17.453c-2.6719 4.6289-3.3945 10.129-2.0117 15.293 1.3867 5.1602 4.7617 9.5664 9.3867 12.238 0 0 1.0234 0.58594 0 0 4.6289 2.6719 10.133 3.3906 15.293 2.0117 5.1641-1.3867 9.5664-4.7617 12.238-9.3906 4.6758-8.0977 10.074-17.453 10.074-17.453 1.8594-3.2148 0.75391-7.3242-2.457-9.1758zm-0.89844 14.992 11.633 6.7188-6.7188 11.641c-0.88672 1.5391-2.3555 2.668-4.0781 3.1289-1.7227 0.45703-3.5508 0.21484-5.0938-0.67578 2.6328 1.5195 0 0 0 0-1.543-0.89062-2.668-2.3555-3.1328-4.0742-0.46094-1.7227-0.21875-3.5586 0.67188-5.0977z"/>
  <path d="m215.93 189.86c-4.625-2.6719-10.125-3.3945-15.293-2.0117-5.1562 1.3828-9.5625 4.7578-12.234 9.3867-11.18 19.363-33.137 57.395-40.883 70.812-2.6719 4.625-3.3906 10.125-2.0117 15.289l2.0391 7.6016c0.46094 1.7227 0.21875 3.5547-0.67188 5.0977 0 0-24.086 41.723-24.086 41.723-2.6758 4.6289-3.3984 10.129-2.0117 15.289 1.3789 5.1641 4.7578 9.5664 9.3828 12.234 8.6641 5.0039 20.43 11.797 29.094 16.797 4.625 2.6719 10.129 3.3984 15.289 2.0117 5.1602-1.3789 9.5625-4.7578 12.234-9.3906 0 0 3.3594-5.8164 3.3594-5.8164l29.086 16.793c4.6328 2.6758 10.129 3.3984 15.297 2.0117 5.1602-1.3789 9.5625-4.7539 12.234-9.3867 11.633-20.145 35.391-61.297 47.023-81.445 2.6719-4.6289 3.3984-10.129 2.0117-15.289-1.3828-5.1641-4.7578-9.5664-9.3906-12.238l-29.086-16.793 6.7148-11.637c2.6758-4.6289 3.4023-10.129 2.0117-15.289-1.3789-5.1641-4.7578-9.5664-9.3828-12.238zm-6.7148 11.637 40.723 23.512c1.543 0.89062 2.6719 2.3555 3.1289 4.0781 0.46094 1.7188 0.21875 3.5547-0.67187 5.0977l-10.074 17.453c-1.8555 3.2109-0.75391 7.3203 2.457 9.1758l34.902 20.148c1.5469 0.89453 2.6719 2.3555 3.1328 4.082 0.46484 1.7188 0.22266 3.5547-0.66797 5.0977l-47.023 81.445c-0.89062 1.543-2.3594 2.6719-4.0781 3.1289-1.7266 0.46094-3.5547 0.21875-5.1016-0.67188l-34.902-20.152c-3.2148-1.8555-7.3203-0.75-9.1758 2.4609 0 0-3.3594 5.8164-6.7188 11.633-0.89063 1.543-2.3594 2.6719-4.0781 3.1289-1.7227 0.46484-3.5547 0.22266-5.0977-0.66797l-29.09-16.797c-1.543-0.89062-2.6719-2.3555-3.1289-4.0781-0.46094-1.7188-0.21875-3.5547 0.67188-5.0977l24.086-41.723c2.6719-4.625 3.3984-10.125 2.0156-15.289l-2.0391-7.5977c-0.45703-1.7266-0.21875-3.5586 0.67188-5.0977 0 0 40.883-70.812 40.883-70.812 0.89062-1.5391 2.3594-2.668 4.0781-3.1289 1.7227-0.46484 3.5547-0.21875 5.0977 0.67188z"/>
  <path d="m224.21 202.39 18.41-31.891c0.57031-0.98828 1.3828-1.8164 2.3633-2.3984l46.398-27.824c2.8594-1.7109 6.5312-1.0703 8.6445 1.4883l0.51172 0.63281c1.2773 1.5508 1.793 3.5859 1.4062 5.5586-0.38281 1.9648-1.6367 3.6641-3.3945 4.6172-9.6758 5.2266-21.68 11.715-27.41 14.812-3.2812 1.7734-6.0039 4.4219-7.8672 7.6523l-21.613 37.43c-1.8516 3.2109-0.75 7.3203 2.4609 9.1758 3.2109 1.8516 7.3203 0.75 9.1758-2.4609l21.609-37.43c0.62109-1.0742 1.5273-1.957 2.6211-2.5508 5.7305-3.0977 17.734-9.5859 27.41-14.812 5.2969-2.8594 9.0391-7.9453 10.195-13.855 1.1523-5.9102-0.39062-12.023-4.2188-16.676l-0.51172-0.62109c-6.3398-7.707-17.367-9.6172-25.926-4.4805l-46.398 27.816c-2.9414 1.7617-5.3789 4.2422-7.0898 7.207l-18.414 31.895c-1.8555 3.2109-0.75391 7.3203 2.457 9.1758 3.2109 1.8516 7.3242 0.75 9.1797-2.4609z"/>
  <path d="m190.38 314.72c-2.6719 4.6328-3.3945 10.133-2.0078 15.293 1.3789 5.1641 4.7539 9.5625 9.3867 12.238l17.453 10.074c4.6289 2.6758 10.129 3.3984 15.289 2.0117 5.1641-1.3789 9.5625-4.7578 12.238-9.3867 5.8555-10.141 14.297-24.766 20.152-34.906 2.6719-4.6289 3.3984-10.129 2.0117-15.289-1.3789-5.1641-4.7578-9.5664-9.3867-12.238l-17.453-10.078c-4.6328-2.6719-10.133-3.3984-15.293-2.0078-5.1641 1.3789-9.5625 4.7539-12.238 9.3867zm11.637 6.7188 20.152-34.906c0.89062-1.5391 2.3555-2.6719 4.0781-3.1289 1.7188-0.46484 3.5547-0.21875 5.0977 0.67188l17.453 10.074c1.543 0.89062 2.6719 2.3594 3.1289 4.082 0.46484 1.7188 0.21875 3.5547-0.67188 5.0938l-20.152 34.906c-0.89062 1.543-2.3555 2.6719-4.0781 3.1289-1.7188 0.46484-3.5547 0.21875-5.0977-0.66797l-17.453-10.078c-1.5391-0.89062-2.6719-2.3555-3.1289-4.0781-0.46484-1.7188-0.21875-3.5547 0.67188-5.0977z"/>
 </g>
</svg>
