<?xml version="1.0" encoding="UTF-8"?>
<svg width="512pt" height="512pt" version="1.1" viewBox="0 0 512 512" xmlns="http://www.w3.org/2000/svg">
 <g fill="#fff">
  <path d="m414.25 132.66h8.5352c4.6562 0 7.7578-3.1016 7.7578-7.7578s-3.1016-7.7578-7.7578-7.7578h-8.5352v-46.547h8.5352c4.6562 0 7.7578-3.1016 7.7578-7.7578s-3.1016-7.7578-7.7578-7.7578h-190.06v-39.562c0-4.6562-3.1016-7.7578-7.7578-7.7578h-75.25c-4.6562 0-7.7578 3.1016-7.7578 7.7578v39.562h-52.75c-4.6562 0-7.7578 3.1016-7.7578 7.7578s3.1016 7.7578 7.7578 7.7578h8.5352v46.547h-8.5352c-4.6562 0-7.7578 3.1016-7.7578 7.7578s3.1016 7.7578 7.7578 7.7578h8.5352v294.01h-8.5352c-4.6562 0-7.7578 3.1016-7.7578 7.7578s3.1016 7.7578 7.7578 7.7578h8.5352v46.547h-8.5352c-4.6562 0-7.7578 3.1016-7.7578 7.7578s3.1016 7.7578 7.7578 7.7578h334.35c4.6562 0 7.7578-3.1016 7.7578-7.7578s-3.1016-7.7578-7.7578-7.7578h-8.5352v-46.547h8.5352c4.6562 0 7.7578-3.1016 7.7578-7.7578s-3.1016-7.7578-7.7578-7.7578h-8.5352l0.007812-294.01zm-256.77-109.38h59.73v31.805h-59.734zm-44.219 47.32h286.25v46.547h-286.25zm285.48 418.13h-285.48v-46.547h286.25v46.547zm-285.48-62.059v-247.47h20.168c4.6562 0 7.7578-3.1016 7.7578-7.7578s-3.1016-7.7578-7.7578-7.7578h-20.168v-31.031h286.25v247.47h-20.168c-4.6562 0-7.7578 3.1016-7.7578 7.7578s3.1016 7.7578 7.7578 7.7578h20.168v31.031z"/>
  <path d="m356.85 307.98-13.188-6.9805v-51.199c0-34.133-27.926-62.062-62.062-62.062h-52.75l-6.207-6.207c-3.1016-3.1016-7.7578-3.1016-10.859 0l-58.184 58.184c-3.8789 3.8789-3.1016 10.086 1.5508 12.414l13.188 6.9805v51.199c0 34.133 27.926 62.062 62.062 62.062h52.75l6.207 6.207c3.1016 3.1016 7.7578 3.1016 10.859 0l58.184-58.184c3.8789-3.1055 3.1055-9.3125-1.5508-12.414zm-126.45 48.871c-25.602 0-46.547-20.945-46.547-46.547v-55.855c0-3.1016-1.5508-5.4297-3.8789-6.9805l-7.7578-4.6562 44.992-44.992 44.219 44.219-11.637 4.6562c-2.3281 0.77734-4.6562 3.8789-4.6562 6.9805v47.32l-11.637 6.9805c-4.6562 2.3281-4.6562 8.5352-1.5508 12.414l35.684 35.684-37.23 0.003907zm64.391 5.4297-45.77-45.77 6.9805-3.8789c2.3281-1.5508 3.8789-3.8789 3.8789-6.9805v-46.547l17.844-6.9805c2.3281-0.77734 3.8789-3.1016 4.6562-5.4297s0-5.4297-2.3281-6.9805l-35.684-35.684h37.238c25.602 0 46.547 20.945 46.547 46.547v55.855c0 3.1016 1.5508 5.4297 3.8789 6.9805l7.7578 4.6562z"/>
 </g>
</svg>
