<?xml version="1.0" encoding="UTF-8"?>
<svg width="512pt" height="512pt" version="1.1" viewBox="0 0 512 512" xmlns="http://www.w3.org/2000/svg">
 <g fill="#ccc">
  <path d="m423.94 271.04-5.8672-89.344c-0.019531-0.91797-0.66016-23.445-15.34-37.246-18.754-17.602-57.535-49.879-78.613-62.207-8-4.6719-18.836-6.8047-32.574-6.3359-17.387 0.51172-49.43-0.085938-49.449-0.085938-0.042969 0.17188-13.633-0.019531-23.938 8.5977-4.6094 3.8828-8.5352 8.4492-12.352 12.863-8.0039 9.2578-17.113 19.688-30.914 18.152-36.844 0.085937-113.84 1.9219-113.84 1.9219l-0.66016-27.734s77.441-1.8359 116.03-1.8359c1.3867-0.53125 5.3984-5.1836 8.3438-8.5977 4.3086-5.0117 9.1953-10.668 15.531-15.98 18.219-15.297 40-15.125 42.391-15.105 0.019532 0 31.188 0.59766 48.02 0.085938 19.223-0.44922 34.773 2.7539 47.359 10.113 23.148 13.523 63.445 46.996 83.605 65.941 23.445 22.016 24.043 54.996 24.062 56.406l5.8438 88.574zm-44.801-49.109c-5.5234 0-12.012-1.0039-19.625-3.4336-19.562-6.2305-56.598-32.98-99.477-64l-21.566-15.551c-7.5508-5.3984-16.426-19.777-13.461-32.66 1.0469-4.6094 5.3125-15.66 21.93-18.516 2.2812-0.40625 56.512-9.4297 79.105 11.266 5.9961 5.4844 15.594 12.777 25.77 20.48 19.82 15.02 40.32 30.551 50.793 44.523 7.2305 9.6445 12.117 31.508 2.0039 45.781-4.2891 6.0938-11.969 12.109-25.473 12.109zm-11.242-29.867c10.754 3.4336 14.188 1.6836 14.207 1.6445 1.3242-1.7695 0.29688-10.027-1.7266-13.121-8.0859-10.773-28.715-26.41-45.289-38.977-10.711-8.1055-20.82-15.766-27.754-22.145-7.1055-6.5078-33.77-7.7852-53.801-4.6914 0.49219 0.78906 1.0234 1.4922 1.4492 1.8789l21.332 15.359c37.457 27.156 76.242 55.188 91.582 60.051z"/>
  <path d="m177.6 75.82h-116.52v-35.949h2.3477l-0.042969-12.586c0-8.8945 5.8438-14.207 17.406-15.895l0.14844-0.019531c3.1133-2.2617 6.8477-3.8828 10.559-5.0352l2.0898-4.6719h51.543l2.0898 4.6719c3.7109 1.1523 7.4453 2.7734 10.559 5.0352l0.14844 0.019531c11.562 1.6836 17.406 7.0195 17.406 15.828l-0.078125 12.652h2.3477zm-86.402-27.734h56.277l0.042969-10.324-4.9688-0.96094-1.9414-3.3711c-1.4922-0.57422-3.9023-1.2812-5.8242-1.6445l-7.6367-2.3867-16.062 1.0664-7.1719 1.3438c-1.9414 0.36328-4.3516 1.043-5.8438 1.6211l-1.9414 3.3711-4.9727 0.96094z"/>
  <path d="m413.84 510.34h-315.01c-20.82 0-37.781-16.938-37.781-37.781v-375.87h27.734v375.87c0 5.5469 4.5 10.047 10.047 10.047h315.01c5.5234 0 10.047-4.5 10.047-10.047l0.003906-206.32h27.734v206.32c-0.003906 20.82-16.941 37.781-37.785 37.781z"/>
  <path d="m150.57 453.04c-3.1992 0-6.4219-1.1094-9.0234-3.3477-5.8008-4.9922-6.4648-13.738-1.4727-19.562l28.543-33.215c4.9688-5.8242 13.738-6.4844 19.562-1.4727 5.8008 4.9922 6.4648 13.738 1.4727 19.562l-28.562 33.215c-2.7344 3.1758-6.6133 4.8203-10.52 4.8203z"/>
  <path d="m300.41 278.76c-3.1992 0-6.4219-1.1094-9.0234-3.3477-5.8008-4.9922-6.4648-13.738-1.4727-19.562l29.59-34.41c4.9688-5.8008 13.738-6.4648 19.562-1.4727 5.8008 4.9922 6.4648 13.738 1.4727 19.562l-29.59 34.41c-2.75 3.1992-6.6328 4.8203-10.539 4.8203z"/>
  <path d="m180.22 278.8c-3.9023 0-7.7852-1.6445-10.516-4.8203l-29.633-34.453c-4.9922-5.8008-4.332-14.57 1.4727-19.562 5.8008-4.9922 14.57-4.332 19.562 1.4727l29.633 34.453c4.9922 5.8008 4.332 14.57-1.4727 19.562-2.625 2.2617-5.8438 3.3477-9.0469 3.3477z"/>
  <path d="m330.03 453.04c-3.9023 0-7.7852-1.6445-10.516-4.8203l-29.609-34.434c-4.9922-5.8008-4.332-14.57 1.4727-19.562 5.8008-4.9922 14.594-4.332 19.562 1.4727l29.609 34.434c4.9922 5.8008 4.332 14.57-1.4727 19.562-2.625 2.2383-5.8477 3.3477-9.0469 3.3477z"/>
  <path d="m293.65 421.76h-106.69c-6.7422 0-13.078-2.9648-17.406-8.1289-4.9062-5.8672-4.1602-14.613 1.7266-19.543 5.207-4.3516 12.691-4.2461 17.727-0.0625h99.691v-121.77c-3.6055-5.7812-2.4961-13.461 2.8594-17.961 5.8672-4.9062 14.633-4.1367 19.543 1.707 3.4336 4.0977 5.332 9.3242 5.332 14.676v128.3c-0.023438 12.566-10.238 22.785-22.785 22.785z"/>
  <path d="m180.18 418.6c-3.9453 0-7.8516-1.6641-10.602-4.9062-3.4766-4.0977-5.375-9.3438-5.375-14.719v-128.3c0-12.566 10.219-22.785 22.762-22.785h106.69c6.6992 0 13.055 2.9453 17.387 8.0859 4.9297 5.8438 4.2031 14.613-1.6445 19.543-5.207 4.3945-12.715 4.2891-17.77 0.10547l-99.688-0.003906v121.77c3.6055 5.7617 2.5391 13.418-2.793 17.922-2.6289 2.1992-5.8047 3.2852-8.9648 3.2852z"/>
 </g>
</svg>
