<?xml version="1.0" encoding="UTF-8"?>
<svg width="512pt" height="512pt" version="1.1" viewBox="0 0 512 512" xmlns="http://www.w3.org/2000/svg">
 <g fill="#ccc">
  <path d="m388.65 107.71-86.324-49.84c-13.316-7.6914-29.727-7.6914-43.043 0-13.32 7.6875-21.523 21.898-21.523 37.273 0 15.379 8.2031 29.59 21.523 37.277l86.316 49.844c13.32 7.6875 29.727 7.6875 43.043 0 13.32-7.6914 21.523-21.898 21.523-37.277 0-15.379-8.2031-29.59-21.52-37.277zm0.058594 49.734h-0.003907c-3.3086 5.7188-8.7539 9.8906-15.133 11.602-6.3828 1.707-13.18 0.81641-18.906-2.4766l-86.324-49.84v-0.003906c-5.7227-3.3047-9.8984-8.7461-11.609-15.129-1.7109-6.3867-0.81641-13.188 2.4883-18.91 3.3047-5.7266 8.75-9.9023 15.133-11.613 6.3828-1.7109 13.188-0.8125 18.91 2.4922l86.324 49.84c5.7148 3.3086 9.8867 8.7539 11.598 15.133 1.707 6.3828 0.81641 13.184-2.4805 18.906z"/>
  <path d="m453.04 124.62c-0.03125-16.148-8.625-31.066-22.582-39.191l-134.35-77.883c-8.6562-5.0117-18.727-7.0195-28.641-5.7109-9.918 1.3047-19.125 5.8555-26.188 12.938l-48.473 48.664h-11.562v-45.309c-0.003906-4.8047-1.9141-9.4141-5.3125-12.812-3.3984-3.3945-8.0078-5.3086-12.812-5.3125h-63.434c-4.8047 0.0039062-9.4102 1.918-12.809 5.3125-3.3984 3.3984-5.3086 8.0078-5.3125 12.812v45.309h-13.594c-2.4062 0-4.7109 0.95703-6.4102 2.6562-1.6992 1.6992-2.6523 4.0078-2.6523 6.4102v407.78c0.011718 8.4102 3.3555 16.473 9.3008 22.418 5.9453 5.9453 14.008 9.2891 22.418 9.3008h330.76c8.4141-0.007812 16.477-3.3555 22.422-9.3008 5.9492-5.9492 9.293-14.012 9.3008-22.422zm-353.36-106.49h63.434v45.309h-63.434zm321.7 475.75-330.76-0.003906c-7.5039-0.007812-13.586-6.0898-13.594-13.594v-398.72h119.54c2.4102 0 4.7188-0.96094 6.4219-2.668l51.121-51.332c4.2383-4.25 9.7617-6.9805 15.715-7.7656 5.9492-0.78125 11.992 0.42188 17.188 3.4297l134.35 77.887c8.375 4.8711 13.531 13.824 13.547 23.512l0.0625 355.66c-0.007812 7.5078-6.0859 13.59-13.594 13.598z"/>
  <path d="m173.64 453.1h-42.234c-7.5078-0.003906-13.598-6.0938-13.602-13.602v-51.301c0-5.0039-4.0547-9.0625-9.0586-9.0625-5.0078 0-9.0625 4.0586-9.0625 9.0625v51.301c0.007812 8.4102 3.3516 16.473 9.3008 22.422 5.9453 5.9453 14.012 9.293 22.422 9.3008h42.238c5.0039 0 9.0625-4.0586 9.0625-9.0625 0-5.0078-4.0586-9.0625-9.0625-9.0625z"/>
  <path d="m340.24 221.6c-1.6992-1.7031-4.0039-2.6562-6.4062-2.6562-2.4023 0-4.707 0.95313-6.4062 2.6562l-73.688 73.691-73.691-73.691c-3.543-3.5078-9.2539-3.4922-12.777 0.03125-3.5234 3.5273-3.5391 9.2383-0.035156 12.781l73.688 73.691-73.688 73.695c-3.5391 3.5391-3.5391 9.2734 0 12.812 3.5391 3.5391 9.2734 3.5391 12.812 0l73.688-73.691 73.688 73.691h0.003906c3.5391 3.5391 9.2734 3.5391 12.812 0 3.5391-3.5391 3.5391-9.2734 0-12.812l-73.688-73.691 73.688-73.691v0.003906c1.7031-1.6992 2.6602-4.0078 2.6602-6.4102 0-2.4062-0.95703-4.7109-2.6602-6.4102z"/>
 </g>
</svg>
