<?xml version="1.0" encoding="UTF-8"?>
<svg width="1200pt" height="1200pt" version="1.1" viewBox="0 0 1200 1200" xmlns="http://www.w3.org/2000/svg">
 <g fill="#443f3c">
  <path d="m999.6 956.4c0 24-19.199 43.199-43.199 43.199l-712.8 0.003906c-24 0-43.199-19.199-43.199-43.199l-0.003906-712.8c0-24 19.199-43.199 43.199-43.199h280.8v-86.402h-280.8c-72 0-129.6 57.602-129.6 129.6v712.8c0 72 57.602 129.6 129.6 129.6h712.8c72 0 129.6-57.602 129.6-129.6l-0.003906-280.8h-86.398z"/>
  <path d="m675.6 114v86.398h262.8l-339.6 339.6 61.199 61.199 339.6-339.6v262.8h86.398v-410.4z"/>
 </g>
</svg>
