<?xml version="1.0" encoding="UTF-8"?>
<svg width="1200pt" height="1200pt" version="1.1" viewBox="0 0 1200 1200" xmlns="http://www.w3.org/2000/svg">
 <g fill="#8eac8b">
  <path d="m487.5 206.25h225v187.5h-225z"/>
  <path d="m450 431.25h300c10.355 0 18.75 10.355 18.75 18.75v75c0 10.355-8.3945 18.75-18.75 18.75h-300c-10.355 0-18.75-10.355-18.75-18.75v-75c0-10.355 8.3945-18.75 18.75-18.75z"/>
  <path d="m1125 918.75v-225h-112.5v225zm-75-187.5h37.5v37.5h-37.5z"/>
  <path d="m881.25 637.5h75c10.355 0 18.75 10.355 18.75 18.75v300c0 10.355-8.3945 18.75-18.75 18.75h-75c-10.355 0-18.75-10.355-18.75-18.75v-300c0-10.355 8.3945-18.75 18.75-18.75z"/>
  <path d="m243.75 637.5h75c10.355 0 18.75 10.355 18.75 18.75v300c0 10.355-8.3945 18.75-18.75 18.75h-75c-10.355 0-18.75-10.355-18.75-18.75v-300c0-10.355 8.3945-18.75 18.75-18.75z"/>
  <path d="m187.5 918.75v-225h-112.5v225zm-75-187.5h37.5v37.5h-37.5z"/>
  <path d="m375 693.75v225h450v-225h-93.75c-4.9727 0-9.7422-1.9766-13.258-5.4922-3.5156-3.5156-5.4922-8.2852-5.4922-13.258v-93.75h-225v93.75c0 4.9727-1.9766 9.7422-5.4922 13.258-3.5156 3.5156-8.2852 5.4922-13.258 5.4922zm150 150h75v37.5h-75zm-37.5 0v37.5h-37.5v-37.5z"/>
 </g>
</svg>
