<?xml version="1.0" encoding="UTF-8"?>
<svg width="512pt" height="512pt" version="1.1" viewBox="0 0 512 512" xmlns="http://www.w3.org/2000/svg">
 <g fill="#e6e5e4">
  <path d="m256 256c31.824 0 62.348-12.645 84.852-35.148 22.504-22.504 35.148-53.027 35.148-84.852s-12.645-62.348-35.148-84.852c-22.504-22.504-53.027-35.148-84.852-35.148s-62.348 12.645-84.852 35.148c-22.504 22.504-35.148 53.027-35.148 84.852s12.645 62.348 35.148 84.852c22.504 22.504 53.027 35.148 84.852 35.148zm0-208c23.34 0 45.723 9.2695 62.227 25.773 16.504 16.504 25.773 38.887 25.773 62.227s-9.2695 45.723-25.773 62.227c-16.504 16.504-38.887 25.773-62.227 25.773s-45.723-9.2695-62.227-25.773c-16.504-16.504-25.773-38.887-25.773-62.227 0.042969-23.324 9.3281-45.684 25.82-62.18 16.496-16.492 38.855-25.777 62.18-25.82z"/>
  <path d="m368 288h-224c-21.219 0-41.566 8.4297-56.57 23.43-15 15.004-23.43 35.352-23.43 56.57v96.961c0 5.7148 3.0508 10.996 8 13.855s11.051 2.8594 16 0 8-8.1406 8-13.855v-96.961c0-12.73 5.0586-24.938 14.059-33.941 9.0039-9 21.211-14.059 33.941-14.059h224c12.73 0 24.938 5.0586 33.941 14.059 9 9.0039 14.059 21.211 14.059 33.941v96.961c0 5.7148 3.0508 10.996 8 13.855s11.051 2.8594 16 0 8-8.1406 8-13.855v-96.961c0-21.219-8.4297-41.566-23.43-56.57-15.004-15-35.352-23.43-56.57-23.43z"/>
 </g>
</svg>
